<svg xmlns="http://www.w3.org/2000/svg" viewBox="0 0 1150 1150" preserveAspectRatio="xMinYMin meet"><g transform="translate(575,575)"><defs><linearGradient id="linkGrad-chart-74e59736-3-18" gradientUnits="userSpaceOnUse" x1="369.7736146112724" y1="-123.96561594778684" x2="-280.97439757851424" y2="-270.46882982220154"><stop offset="0%" stop-color="#B038A1"></stop><stop offset="100%" stop-color="#B09238"></stop></linearGradient><linearGradient id="linkGrad-chart-74e59736-1-18" gradientUnits="userSpaceOnUse" x1="204.34836909314598" y1="-332.17727804437703" x2="-155.69698927995375" y2="-357.57299608493645"><stop offset="0%" stop-color="#385BB0"></stop><stop offset="100%" stop-color="#B09238"></stop></linearGradient><linearGradient id="linkGrad-chart-74e59736-14-18" gradientUnits="userSpaceOnUse" x1="-83.03701675712482" y1="381.0575466357765" x2="-371.00466608712793" y2="120.23118456365108"><stop offset="0%" stop-color="#3842B0"></stop><stop offset="100%" stop-color="#B09238"></stop></linearGradient><linearGradient id="linkGrad-chart-74e59736-6-18" gradientUnits="userSpaceOnUse" x1="376.5146093049245" y1="101.66980367818195" x2="-361.04188031468476" y2="-147.47461021761296"><stop offset="0%" stop-color="#5638B0"></stop><stop offset="100%" stop-color="#B09238"></stop></linearGradient><linearGradient id="linkGrad-chart-74e59736-11-18" gradientUnits="userSpaceOnUse" x1="126.78234806417277" y1="368.8173480455264" x2="-389.99929502285414" y2="0.7415400709132061"><stop offset="0%" stop-color="#9738B0"></stop><stop offset="100%" stop-color="#B09238"></stop></linearGradient><linearGradient id="linkGrad-chart-74e59736-15-18" gradientUnits="userSpaceOnUse" x1="-216.88551760095746" y1="324.1306407221705" x2="-335.8494508020844" y2="198.25525565779654"><stop offset="0%" stop-color="#65B038"></stop><stop offset="100%" stop-color="#B09238"></stop></linearGradient><linearGradient id="linkGrad-chart-74e59736-0-18" gradientUnits="userSpaceOnUse" x1="36.88658713031534" y1="-388.2516963129429" x2="-68.12513980493203" y2="-384.0038610828783"><stop offset="0%" stop-color="#B03838"></stop><stop offset="100%" stop-color="#B09238"></stop></linearGradient><linearGradient id="linkGrad-chart-74e59736-6-11" gradientUnits="userSpaceOnUse" x1="344.32103241735246" y1="183.1475542699069" x2="223.16701145312732" y2="319.8382169145516"><stop offset="0%" stop-color="#5638B0"></stop><stop offset="100%" stop-color="#9738B0"></stop></linearGradient><linearGradient id="linkGrad-chart-74e59736-0-6" gradientUnits="userSpaceOnUse" x1="134.06539389548448" y1="-366.2328086882012" x2="388.25696730056984" y2="36.83106491216697"><stop offset="0%" stop-color="#B03838"></stop><stop offset="100%" stop-color="#5638B0"></stop></linearGradient><linearGradient id="linkGrad-chart-74e59736-9-18" gradientUnits="userSpaceOnUse" x1="264.3268480769143" y1="286.76003449874923" x2="-385.03525984335084" y2="-62.03102995568672"><stop offset="0%" stop-color="#3883B0"></stop><stop offset="100%" stop-color="#B09238"></stop></linearGradient><linearGradient id="linkGrad-chart-74e59736-2-18" gradientUnits="userSpaceOnUse" x1="316.75980424996635" y1="-227.5153322559229" x2="-213.99350544956" y2="-326.04720459683307"><stop offset="0%" stop-color="#7EB038"></stop><stop offset="100%" stop-color="#B09238"></stop></linearGradient><linearGradient id="linkGrad-chart-74e59736-17-18" gradientUnits="userSpaceOnUse" x1="-290.8918791617087" y1="259.77281350782243" x2="-308.08465124529556" y2="239.1314443293993"><stop offset="0%" stop-color="#38ABB0"></stop><stop offset="100%" stop-color="#B09238"></stop></linearGradient><linearGradient id="linkGrad-chart-74e59736-11-15" gradientUnits="userSpaceOnUse" x1="73.81050807260029" y1="382.95170569938006" x2="-143.34539618329467" y2="362.70111302979797"><stop offset="0%" stop-color="#9738B0"></stop><stop offset="100%" stop-color="#65B038"></stop></linearGradient><linearGradient id="linkGrad-chart-74e59736-12-18" gradientUnits="userSpaceOnUse" x1="10.510122951790565" y1="389.8583554517438" x2="-386.0598452499444" y2="55.29734067375231"><stop offset="0%" stop-color="#38B074"></stop><stop offset="100%" stop-color="#B09238"></stop></linearGradient><linearGradient id="linkGrad-chart-74e59736-8-18" gradientUnits="userSpaceOnUse" x1="304.3408503529404" y1="243.87834427527417" x2="-380.7303206349035" y2="-84.52468840074839"><stop offset="0%" stop-color="#B03860"></stop><stop offset="100%" stop-color="#B09238"></stop></linearGradient><linearGradient id="linkGrad-chart-74e59736-0-11" gradientUnits="userSpaceOnUse" x1="105.90567253400985" y1="-375.34515918700623" x2="175.99725558825213" y2="348.0301222960499"><stop offset="0%" stop-color="#B03838"></stop><stop offset="100%" stop-color="#9738B0"></stop></linearGradient><linearGradient id="linkGrad-chart-74e59736-1-17" gradientUnits="userSpaceOnUse" x1="255.14238926260626" y1="-294.96162665907696" x2="-277.3491326963665" y2="274.18508090808535"><stop offset="0%" stop-color="#385BB0"></stop><stop offset="100%" stop-color="#38ABB0"></stop></linearGradient><linearGradient id="linkGrad-chart-74e59736-6-15" gradientUnits="userSpaceOnUse" x1="358.73770120946926" y1="152.99431927671543" x2="-161.1990962468131" y2="355.1265286756407"><stop offset="0%" stop-color="#5638B0"></stop><stop offset="100%" stop-color="#65B038"></stop></linearGradient><linearGradient id="linkGrad-chart-74e59736-11-12" gradientUnits="userSpaceOnUse" x1="47.78745480885037" y1="387.0611827126198" x2="29.178318135742316" y2="388.9069628468606"><stop offset="0%" stop-color="#9738B0"></stop><stop offset="100%" stop-color="#38B074"></stop></linearGradient><linearGradient id="linkGrad-chart-74e59736-1-16" gradientUnits="userSpaceOnUse" x1="266.6170695485336" y1="-284.63193465483175" x2="-263.41678652842455" y2="287.5962388054448"><stop offset="0%" stop-color="#385BB0"></stop><stop offset="100%" stop-color="#B03888"></stop></linearGradient><linearGradient id="linkGrad-chart-74e59736-4-18" gradientUnits="userSpaceOnUse" x1="389.60788653863347" y1="-17.48412842835769" x2="-331.5992171589442" y2="-205.28506808722202"><stop offset="0%" stop-color="#38B09C"></stop><stop offset="100%" stop-color="#B09238"></stop></linearGradient><linearGradient id="linkGrad-chart-74e59736-1-9" gradientUnits="userSpaceOnUse" x1="280.9245754454425" y1="-270.5205776106466" x2="278.1662802743982" y2="273.3560325259074"><stop offset="0%" stop-color="#385BB0"></stop><stop offset="100%" stop-color="#3883B0"></stop></linearGradient><linearGradient id="linkGrad-chart-74e59736-2-11" gradientUnits="userSpaceOnUse" x1="327.01964720308575" y1="-212.50447134865024" x2="196.1774514536039" y2="337.06736350641967"><stop offset="0%" stop-color="#7EB038"></stop><stop offset="100%" stop-color="#9738B0"></stop></linearGradient><linearGradient id="linkGrad-chart-74e59736-1-8" gradientUnits="userSpaceOnUse" x1="289.83744857604916" y1="-260.9487562777912" x2="314.51133279326433" y2="230.61357623653583"><stop offset="0%" stop-color="#385BB0"></stop><stop offset="100%" stop-color="#B03860"></stop></linearGradient><linearGradient id="linkGrad-chart-74e59736-1-3" gradientUnits="userSpaceOnUse" x1="303.57628299923573" y1="-244.82941081571047" x2="335.8290365719719" y2="-198.28983381691845"><stop offset="0%" stop-color="#385BB0"></stop><stop offset="100%" stop-color="#B038A1"></stop></linearGradient><linearGradient id="linkGrad-chart-74e59736-0-14" gradientUnits="userSpaceOnUse" x1="90.34593664611369" y1="-379.39110655303506" x2="-29.798946746412746" y2="388.85990121482627"><stop offset="0%" stop-color="#B03838"></stop><stop offset="100%" stop-color="#3842B0"></stop></linearGradient><linearGradient id="linkGrad-chart-74e59736-18-19" gradientUnits="userSpaceOnUse" x1="-25.582591244561126" y1="-389.1600326667857" x2="-9.832615825485702" y2="-389.8760311509652"><stop offset="0%" stop-color="#B09238"></stop><stop offset="100%" stop-color="#6F38B0"></stop></linearGradient><linearGradient id="linkGrad-chart-74e59736-5-18" gradientUnits="userSpaceOnUse" x1="389.9992484690967" y1="-0.765632770836744" x2="-338.1691216088103" y2="-194.27209061088945"><stop offset="0%" stop-color="#B07938"></stop><stop offset="100%" stop-color="#B09238"></stop></linearGradient><linearGradient id="linkGrad-chart-74e59736-0-15" gradientUnits="userSpaceOnUse" x1="78.94885209261253" y1="-381.92548848336736" x2="-179.39105311885598" y2="346.2930118568779"><stop offset="0%" stop-color="#B03838"></stop><stop offset="100%" stop-color="#65B038"></stop></linearGradient><linearGradient id="linkGrad-chart-74e59736-8-16" gradientUnits="userSpaceOnUse" x1="294.53329927539784" y1="255.6367258786361" x2="-254.25476664464497" y2="295.7270931762545"><stop offset="0%" stop-color="#B03860"></stop><stop offset="100%" stop-color="#B03888"></stop></linearGradient><linearGradient id="linkGrad-chart-74e59736-7-18" gradientUnits="userSpaceOnUse" x1="323.21866768533647" y1="218.24228018355203" x2="-377.2164218943126" y2="-99.03419133436684"><stop offset="0%" stop-color="#3DB038"></stop><stop offset="100%" stop-color="#B09238"></stop></linearGradient><linearGradient id="linkGrad-chart-74e59736-3-9" gradientUnits="userSpaceOnUse" x1="387.9874538146042" y1="-39.56937809039198" x2="285.66016114605515" y2="265.5151075438266"><stop offset="0%" stop-color="#B038A1"></stop><stop offset="100%" stop-color="#3883B0"></stop></linearGradient><linearGradient id="linkGrad-chart-74e59736-1-6" gradientUnits="userSpaceOnUse" x1="296.89906943907835" y1="-252.88523595933657" x2="389.7804241308322" y2="13.085142887586207"><stop offset="0%" stop-color="#385BB0"></stop><stop offset="100%" stop-color="#5638B0"></stop></linearGradient><linearGradient id="linkGrad-chart-74e59736-13-18" gradientUnits="userSpaceOnUse" x1="-8.5091861369519" y1="389.90716042576946" x2="-383.6262226704577" y2="70.22051893568137"><stop offset="0%" stop-color="#B05138"></stop><stop offset="100%" stop-color="#B09238"></stop></linearGradient><linearGradient id="linkGrad-chart-74e59736-11-14" gradientUnits="userSpaceOnUse" x1="58.84770639073144" y1="385.53462549108383" x2="-19.99362310610298" y2="389.487169281725"><stop offset="0%" stop-color="#9738B0"></stop><stop offset="100%" stop-color="#3842B0"></stop></linearGradient><linearGradient id="linkGrad-chart-74e59736-3-7" gradientUnits="userSpaceOnUse" x1="388.69467307000235" y1="-31.881830672092914" x2="327.7175505295372" y2="211.42659973361967"><stop offset="0%" stop-color="#B038A1"></stop><stop offset="100%" stop-color="#3DB038"></stop></linearGradient><linearGradient id="linkGrad-chart-74e59736-10-18" gradientUnits="userSpaceOnUse" x1="249.24777662913698" y1="299.95924030679873" x2="-387.27223026979385" y2="-46.045843046466075"><stop offset="0%" stop-color="#A6B038"></stop><stop offset="100%" stop-color="#B09238"></stop></linearGradient><linearGradient id="linkGrad-chart-74e59736-3-15" gradientUnits="userSpaceOnUse" x1="387.14364274351743" y1="-47.114752289274904" x2="-171.41335425586283" y2="350.3105222267154"><stop offset="0%" stop-color="#B038A1"></stop><stop offset="100%" stop-color="#65B038"></stop></linearGradient><linearGradient id="linkGrad-chart-74e59736-1-11" gradientUnits="userSpaceOnUse" x1="274.0660689398309" y1="-277.466736485417" x2="187.67997801016077" y2="341.87165114133927"><stop offset="0%" stop-color="#385BB0"></stop><stop offset="100%" stop-color="#9738B0"></stop></linearGradient></defs><g class="group"><path style="fill: rgb(176, 56, 56);" d="M2.626867384171073e-14,-429.00000000000006A429.00000000000006,429.00000000000006,0,0,1,167.510608372629,-394.9445481110377L153.80519496032298,-362.6309032655891A393.9,393.9,0,0,0,2.411941870920712e-14,-393.9Z"></path><text dy=".35em" class="titles" transform="rotate(-78.50820043934509)translate(439.00000000000006)">Aang</text></g><g class="group"><path style="fill: rgb(56, 91, 176);" d="M171.45161256935438,-393.24972288276064A429.00000000000006,429.00000000000006,0,0,1,338.2085578962373,-263.92417730429236L310.53694861381786,-242.33038097939564A393.9,393.9,0,0,0,157.42375335913445,-361.07474555598924Z"></path><text dy=".35em" class="titles" transform="rotate(-52.205234655635365)translate(439.00000000000006)">Azula</text></g><g class="group"><path style="fill: rgb(126, 176, 56);" d="M340.83084539516227,-260.5289519942439A429.00000000000006,429.00000000000006,0,0,1,363.60923888398963,-227.66053983553184L333.8593920662086,-209.03376839444283A393.9,393.9,0,0,0,312.9446853173762,-239.21294683107845Z"></path><text dy=".35em" class="titles" transform="rotate(-34.72264683813794)translate(439.00000000000006)">Hakoda</text></g><g class="group"><path style="fill: rgb(176, 56, 161);" d="M365.86762602867054,-224.01312511579525A429.00000000000006,429.00000000000006,0,0,1,427.85726869509455,-31.291494447752747L392.85076489276855,-28.731281265663878A393.9,393.9,0,0,0,335.93300208087015,-205.68477851541195Z"></path><text dy=".35em" class="titles" transform="rotate(-17.83058379414888)translate(439.00000000000006)">Iroh</text></g><g class="group"><path style="fill: rgb(56, 176, 156);" d="M428.14878573918753,-27.011428508305723A429.00000000000006,429.00000000000006,0,0,1,428.8472444184544,-11.447312116758894L393.75974260239894,-10.510713852660437A393.9,393.9,0,0,0,393.11843054234487,-24.801402539444343Z"></path><text dy=".35em" class="titles" transform="rotate(-2.569493934135309)translate(439.00000000000006)">Izumi</text></g><g class="group"><path style="fill: rgb(176, 121, 56);" d="M428.940273448211,-7.158338785921571A429.00000000000006,429.00000000000006,0,0,1,428.9650730639898,5.474129264636291L393.86793072239055,5.026245961166048A393.9,393.9,0,0,0,393.84516016608455,-6.572656521618896Z"></path><text dy=".35em" class="titles" transform="rotate(-0.112480909239693)translate(439.00000000000006)">Jet</text></g><g class="group"><path style="fill: rgb(86, 56, 176);" d="M428.8888846087754,9.763434797272467A429.00000000000006,429.00000000000006,0,0,1,364.80537356290444,225.73887440941533L334.95766118048493,207.26933013955403A393.9,393.9,0,0,0,393.79797586805734,8.964608313859262Z"></path><text dy=".35em" class="titles" transform="rotate(16.526500088960077)translate(439.00000000000006)">Katara</text></g><g class="group"><path style="fill: rgb(61, 176, 56);" d="M362.52978232509156,229.37558049478977A429.00000000000006,429.00000000000006,0,0,1,352.6082666469448,244.35304436866988L323.75849937583104,224.36052255668776A393.9,393.9,0,0,0,332.8682546803113,210.60848754521604Z"></path><text dy=".35em" class="titles" transform="rotate(33.521670633085506)translate(439.00000000000006)">Lu Ten</text></g><g class="group"><path style="fill: rgb(176, 56, 96);" d="M350.1471466621491,247.86685071698366A429.00000000000006,429.00000000000006,0,0,1,320.2787069914378,285.416449855107L294.07408551032006,262.0641948669618A393.9,393.9,0,0,0,321.4987437534278,227.58683565832132Z"></path><text dy=".35em" class="titles" transform="rotate(38.50013070677082)translate(439.00000000000006)">Mai</text></g><g class="group"><path style="fill: rgb(56, 131, 176);" d="M317.4085762601567,288.60491284193404A429.00000000000006,429.00000000000006,0,0,1,280.33801139780957,324.7331202164658L257.40126501071603,298.16404674420943A393.9,393.9,0,0,0,291.4387836570529,264.99178360941215Z"></path><text dy=".35em" class="titles" transform="rotate(45.737582374353224)translate(439.00000000000006)">Ozai</text></g><g class="group"><path style="fill: rgb(166, 176, 56);" d="M277.07671753379833,327.52021708696975A429.00000000000006,429.00000000000006,0,0,1,271.2469937711319,332.364360860372L249.0540579171301,305.17091315361426A393.9,393.9,0,0,0,254.40680428103295,300.72310841621766Z"></path><text dy=".35em" class="titles" transform="rotate(50.275492220183054)translate(439.00000000000006)">Reader</text></g><g class="group"><path style="fill: rgb(151, 56, 176);" d="M267.90984331964205,335.0601675109187A429.00000000000006,429.00000000000006,0,0,1,44.47733406021795,426.68813758399216L40.83827945529102,391.77728996348367A393.9,393.9,0,0,0,245.98994704803494,307.64615380547986Z"></path><text dy=".35em" class="titles" transform="rotate(67.70183958306066)translate(439.00000000000006)">Sokka</text></g><g class="group"><path style="fill: rgb(56, 176, 116);" d="M40.2082999505413,427.1115692826493A429.00000000000006,429.00000000000006,0,0,1,-0.8598640260853164,428.9991382670328L-0.789511514860154,393.8992087724573A393.9,393.9,0,0,0,36.91852995458791,392.1660772504325Z"></path><text dy=".35em" class="titles" transform="rotate(87.36843172162867)translate(439.00000000000006)">Suki</text></g><g class="group"><path style="fill: rgb(176, 81, 56);" d="M-5.149740916413644,428.96908999191754A429.00000000000006,429.00000000000006,0,0,1,-13.569566744655265,428.78533890323536L-12.459329465547105,393.7029020838797A393.9,393.9,0,0,0,-4.728398477797981,393.87161899257876Z"></path><text dy=".35em" class="titles" text-anchor="end" transform="rotate(91.25020293022698)translate(439.00000000000006)rotate(180)">The Fire Nation</text></g><g class="group"><path style="fill: rgb(56, 66, 176);" d="M-17.85667019713843,428.6282064090867A429.00000000000006,429.00000000000006,0,0,1,-141.8891946395384,404.85609350057115L-130.28007871448523,371.73150403234257A393.9,393.9,0,0,0,-16.395669908281647,393.5586258847068Z"></path><text dy=".35em" class="titles" text-anchor="end" transform="rotate(100.84975369184286)translate(439.00000000000006)rotate(180)">The Gaang</text></g><g class="group"><path style="fill: rgb(101, 176, 56);" d="M-145.93059369825417,403.41698256627114A429.00000000000006,429.00000000000006,0,0,1,-272.09593299147866,331.66972012756423L-249.83353847399403,304.53310666258164A393.9,393.9,0,0,0,-133.99081785021517,370.4101385381216Z"></path><text dy=".35em" class="titles" text-anchor="end" transform="rotate(119.62587196559667)translate(439.00000000000006)rotate(180)">Toph Beifong</text></g><g class="group"><path style="fill: rgb(176, 56, 136);" d="M-275.39897023146733,328.9322227989338A429.00000000000006,429.00000000000006,0,0,1,-295.50604254160015,310.99385656537015L-271.3282754245601,285.5489046645671A393.9,393.9,0,0,0,-252.86632721252903,302.01958638811186Z"></path><text dy=".35em" class="titles" text-anchor="end" transform="rotate(131.73749636689894)translate(439.00000000000006)rotate(180)">Ty Lee</text></g><g class="group"><path style="fill: rgb(56, 171, 176);" d="M-298.6011540962036,308.02329582746717A429.00000000000006,429.00000000000006,0,0,1,-328.25573185433706,276.2049501815158L-301.39844470261846,253.60636334848263A393.9,393.9,0,0,0,-274.1701505792414,282.8213898052198Z"></path><text dy=".35em" class="titles" text-anchor="end" transform="rotate(137.01590553189007)translate(439.00000000000006)rotate(180)">Ursa</text></g><g class="group"><path style="fill: rgb(176, 146, 56);" d="M-331.001322672404,272.9086374395635A429.00000000000006,429.00000000000006,0,0,1,-21.624878755176436,-428.4546237570835L-19.85557049338927,-393.3992454496857A393.9,393.9,0,0,0,-303.9193962719345,250.579748921781Z"></path><text dy=".35em" class="titles" text-anchor="end" transform="rotate(203.80262523278458)translate(439.00000000000006)rotate(180)">Zuko</text></g><g class="group"><path style="fill: rgb(111, 56, 176);" d="M-17.33932269142519,-428.6494463878411A429.00000000000006,429.00000000000006,0,0,1,-4.289928500359011,-428.97855017874946L-3.9389343503296366,-393.8803051641244A393.9,393.9,0,0,0,-15.920650834854031,-393.5781280470177Z"></path><text dy=".35em" class="titles" text-anchor="end" transform="rotate(268.55531515826135)translate(439.00000000000006)rotate(180)">Zuko's Crew</text></g><path class="hiddenArcs" id="arc-chart-74e59736-0" d="M2.626867384171073e-14 -429.00000000000006A429.00000000000006 429.00000000000006 0 0 1 167.510608372629 -394.9445481110377" style="fill: none;"></path><path class="hiddenArcs" id="arc-chart-74e59736-1" d="M171.45161256935438 -393.24972288276064A429.00000000000006 429.00000000000006 0 0 1 338.2085578962373 -263.92417730429236" style="fill: none;"></path><path class="hiddenArcs" id="arc-chart-74e59736-2" d="M340.83084539516227 -260.5289519942439A429.00000000000006 429.00000000000006 0 0 1 363.60923888398963 -227.66053983553184" style="fill: none;"></path><path class="hiddenArcs" id="arc-chart-74e59736-3" d="M365.86762602867054 -224.01312511579525A429.00000000000006 429.00000000000006 0 0 1 427.85726869509455 -31.291494447752747" style="fill: none;"></path><path class="hiddenArcs" id="arc-chart-74e59736-4" d="M428.14878573918753 -27.011428508305723A429.00000000000006 429.00000000000006 0 0 1 428.8472444184544 -11.447312116758894" style="fill: none;"></path><path class="hiddenArcs" id="arc-chart-74e59736-5" d="M428.9650730639898 5.474129264636291A429.00000000000006 429.00000000000006 0 0 0 428.940273448211 -7.158338785921571" style="fill: none;"></path><path class="hiddenArcs" id="arc-chart-74e59736-6" d="M364.80537356290444 225.73887440941533A429.00000000000006 429.00000000000006 0 0 0 428.8888846087754 9.763434797272467" style="fill: none;"></path><path class="hiddenArcs" id="arc-chart-74e59736-7" d="M352.6082666469448 244.35304436866988A429.00000000000006 429.00000000000006 0 0 0 362.52978232509156 229.37558049478977" style="fill: none;"></path><path class="hiddenArcs" id="arc-chart-74e59736-8" d="M320.2787069914378 285.416449855107A429.00000000000006 429.00000000000006 0 0 0 350.1471466621491 247.86685071698366" style="fill: none;"></path><path class="hiddenArcs" id="arc-chart-74e59736-9" d="M280.33801139780957 324.7331202164658A429.00000000000006 429.00000000000006 0 0 0 317.4085762601567 288.60491284193404" style="fill: none;"></path><path class="hiddenArcs" id="arc-chart-74e59736-10" d="M271.2469937711319 332.364360860372A429.00000000000006 429.00000000000006 0 0 0 277.07671753379833 327.52021708696975" style="fill: none;"></path><path class="hiddenArcs" id="arc-chart-74e59736-11" d="M44.47733406021795 426.68813758399216A429.00000000000006 429.00000000000006 0 0 0 267.90984331964205 335.0601675109187" style="fill: none;"></path><path class="hiddenArcs" id="arc-chart-74e59736-12" d="M-0.8598640260853164 428.9991382670328A429.00000000000006 429.00000000000006 0 0 0 40.2082999505413 427.1115692826493" style="fill: none;"></path><path class="hiddenArcs" id="arc-chart-74e59736-13" d="M-13.569566744655265 428.78533890323536A429.00000000000006 429.00000000000006 0 0 0 -5.149740916413644 428.96908999191754" style="fill: none;"></path><path class="hiddenArcs" id="arc-chart-74e59736-14" d="M-141.8891946395384 404.85609350057115A429.00000000000006 429.00000000000006 0 0 0 -17.85667019713843 428.6282064090867" style="fill: none;"></path><path class="hiddenArcs" id="arc-chart-74e59736-15" d="M-272.09593299147866 331.66972012756423A429.00000000000006 429.00000000000006 0 0 0 -145.93059369825417 403.41698256627114" style="fill: none;"></path><path class="hiddenArcs" id="arc-chart-74e59736-16" d="M-295.50604254160015 310.99385656537015A429.00000000000006 429.00000000000006 0 0 0 -275.39897023146733 328.9322227989338" style="fill: none;"></path><path class="hiddenArcs" id="arc-chart-74e59736-17" d="M-328.25573185433706 276.2049501815158A429.00000000000006 429.00000000000006 0 0 0 -298.6011540962036 308.02329582746717" style="fill: none;"></path><path class="hiddenArcs" id="arc-chart-74e59736-18" d="M-21.624878755176436 -428.4546237570835A429.00000000000006 429.00000000000006 0 0 0 -331.001322672404 272.9086374395635" style="fill: none;"></path><path class="hiddenArcs" id="arc-chart-74e59736-19" d="M-17.33932269142519 -428.6494463878411A429.00000000000006 429.00000000000006 0 0 1 -4.289928500359011 -428.97855017874946" style="fill: none;"></path><path class="chord" style="fill: url(&quot;#linkGrad-chart-74e59736-3-18&quot;); opacity: 0.8;" d="M338.9648204819699,-192.88040459213556A390,390,0,0,1,386.7288320286407,-50.40645273934094Q0,0,-327.81692676119326,-211.27248407884647A390,390,0,0,1,-223.60515632895186,-319.53205482878394Q0,0,338.9648204819699,-192.88040459213556Z"></path><path class="chord" style="fill: url(&quot;#linkGrad-chart-74e59736-1-18&quot;); opacity: 0.8;" d="M155.86510233577667,-357.4997480752369A390,390,0,0,1,248.8120394202007,-300.3207769028984Q0,0,-204.19215726387966,-332.27332560999093A390,390,0,0,1,-104.13921274623694,-375.8390937204298Q0,0,155.86510233577667,-357.4997480752369Z"></path><path class="chord" style="fill: url(&quot;#linkGrad-chart-74e59736-14-18&quot;); opacity: 0.8;" d="M-35.8386488939162,388.3498310099524A390,390,0,0,1,-128.9901769450349,368.05099409142827Q0,0,-353.52733381343,164.67672648789087A390,390,0,0,1,-382.9184813195706,73.98267813423385Q0,0,-35.8386488939162,388.3498310099524Z"></path><path class="chord" style="fill: url(&quot;#linkGrad-chart-74e59736-6-18&quot;); opacity: 0.8;" d="M385.91835184077365,56.27633350264423A390,390,0,0,1,361.79114975908846,145.62679683353895Q0,0,-375.98988477756484,-103.59346767510736A390,390,0,0,1,-340.992770650141,-189.27210667274863Q0,0,385.91835184077365,56.27633350264423Z"></path><path class="chord" style="fill: url(&quot;#linkGrad-chart-74e59736-11-18&quot;); opacity: 0.8;" d="M167.001137313367,352.4352708456433A390,390,0,0,1,84.99155483872246,380.62637271489274Q0,0,-387.4990050224226,44.09672444334752A390,390,0,0,1,-387.6638925797082,-42.62283883023802Q0,0,167.001137313367,352.4352708456433Z"></path><path class="chord" style="fill: url(&quot;#linkGrad-chart-74e59736-15-18&quot;); opacity: 0.8;" d="M-184.35770621650423,343.674607963098A390,390,0,0,1,-247.3599390831624,301.5179273886947Q0,0,-314.99187244463684,229.95677918648457A390,390,0,0,1,-353.52733381343,164.67672648789087Q0,0,-184.35770621650423,343.674607963098Z"></path><path class="chord" style="fill: url(&quot;#linkGrad-chart-74e59736-0-18&quot;); opacity: 0.8;" d="M2.388061258337339e-14,-390A390,390,0,0,1,73.4424616643081,-383.02245994809056Q0,0,-104.13921274623694,-375.8390937204298A390,390,0,0,1,-31.500280027205733,-388.72578041365824Q0,0,2.388061258337339e-14,-390Z"></path><path class="chord" style="fill: url(&quot;#linkGrad-chart-74e59736-6-11&quot;); opacity: 0.8;" d="M355.534238659664,160.29786380576962A390,390,0,0,1,331.6412486935494,205.2171585540139Q0,0,243.55440301785637,304.6001522826533A390,390,0,0,1,201.82907756656795,333.7139844966469Q0,0,355.534238659664,160.29786380576962Z"></path><path class="chord" style="fill: url(&quot;#linkGrad-chart-74e59736-0-6&quot;); opacity: 0.8;" d="M115.5103112063363,-372.5015006748501A390,390,0,0,1,152.28237124784454,-359.0404982827615Q0,0,389.6164206598781,17.292910460211576A390,390,0,0,1,385.91835184077365,56.27633350264423Q0,0,115.5103112063363,-372.5015006748501Z"></path><path class="chord" style="fill: url(&quot;#linkGrad-chart-74e59736-9-18&quot;); opacity: 0.8;" d="M273.5208289516498,278.0042376108723A390,390,0,0,1,254.85273763437232,295.2119274695143Q0,0,-386.8503440301076,-49.46525370183983A390,390,0,0,1,-382.81212115242624,-74.53106666873964Q0,0,273.5208289516498,278.0042376108723Z"></path><path class="chord" style="fill: url(&quot;#linkGrad-chart-74e59736-2-18&quot;); opacity: 0.8;" d="M309.8462230865111,-236.84450181294898A390,390,0,0,1,323.39258959449967,-217.9844787946231Q0,0,-223.60515632895186,-319.53205482878394A390,390,0,0,1,-204.19215726387966,-332.27332560999093Q0,0,309.8462230865111,-236.84450181294898Z"></path><path class="chord" style="fill: url(&quot;#linkGrad-chart-74e59736-17-18&quot;); opacity: 0.8;" d="M-283.11722758795815,268.2249716989608A390,390,0,0,1,-298.4143016857609,251.0954092559234Q0,0,-300.910293338549,248.0987613086941A390,390,0,0,1,-314.99187244463684,229.95677918648457Q0,0,-283.11722758795815,268.2249716989608Z"></path><path class="chord" style="fill: url(&quot;#linkGrad-chart-74e59736-11-15&quot;); opacity: 0.8;" d="M84.99155483872246,380.62637271489274A390,390,0,0,1,62.56617013988728,384.94866456974063Q0,0,-132.66417608932196,366.74271142388284A390,390,0,0,1,-153.90370021034505,358.3485050360392Q0,0,84.99155483872246,380.62637271489274Z"></path><path class="chord" style="fill: url(&quot;#linkGrad-chart-74e59736-12-18&quot;); opacity: 0.8;" d="M21.793128485441354,389.3906259154386A390,390,0,0,1,-0.7816945691684694,389.99921660639336Q0,0,-384.2970018752694,66.45159403414767A390,390,0,0,1,-387.4990050224226,44.09672444334752Q0,0,21.793128485441354,389.3906259154386Z"></path><path class="chord" style="fill: url(&quot;#linkGrad-chart-74e59736-8-18&quot;); opacity: 0.8;" d="M310.61950345820514,235.8294385172854A390,390,0,0,1,297.85368801120217,251.76016471659182Q0,0,-382.81212115242624,-74.53106666873964A390,390,0,0,1,-378.38767511952454,-94.46040079123708Q0,0,310.61950345820514,235.8294385172854Z"></path><path class="chord" style="fill: url(&quot;#linkGrad-chart-74e59736-0-11&quot;); opacity: 0.8;" d="M96.23117129592956,-377.9412145704851A390,390,0,0,1,115.5103112063363,-372.5015006748501Q0,0,184.8772741345124,343.3953894690381A390,390,0,0,1,167.001137313367,352.4352708456433Q0,0,96.23117129592956,-377.9412145704851Z"></path><path class="chord" style="fill: url(&quot;#linkGrad-chart-74e59736-1-17&quot;); opacity: 0.8;" d="M248.8120394202007,-300.3207769028984A390,390,0,0,1,261.35733989581087,-289.4690672292733Q0,0,-271.4555946329123,280.0211780249701A390,390,0,0,1,-283.11722758795815,268.2249716989608Q0,0,248.8120394202007,-300.3207769028984Z"></path><path class="chord" style="fill: url(&quot;#linkGrad-chart-74e59736-6-15&quot;); opacity: 0.8;" d="M361.79114975908846,145.62679683353895A390,390,0,0,1,355.534238659664,160.29786380576962Q0,0,-153.90370021034505,358.3485050360392A390,390,0,0,1,-168.42708336257732,351.7560484056748Q0,0,361.79114975908846,145.62679683353895Z"></path><path class="chord" style="fill: url(&quot;#linkGrad-chart-74e59736-11-12&quot;); opacity: 0.8;" d="M55.12376012350318,386.0846682657141A390,390,0,0,1,40.43394005474359,387.8983068945383Q0,0,36.55299995503754,388.28324480240843A390,390,0,0,1,21.793128485441354,389.3906259154386Q0,0,55.12376012350318,386.0846682657141Z"></path><path class="chord" style="fill: url(&quot;#linkGrad-chart-74e59736-1-16&quot;); opacity: 0.8;" d="M261.35733989581087,-289.4690672292733A390,390,0,0,1,271.7872912276087,-279.69924620413093Q0,0,-258.1032826177072,292.37423877962294A390,390,0,0,1,-268.6418568560001,282.7216877867001Q0,0,261.35733989581087,-289.4690672292733Z"></path><path class="chord" style="fill: url(&quot;#linkGrad-chart-74e59736-4-18&quot;); opacity: 0.8;" d="M389.2261688538068,-24.555844098459747A390,390,0,0,1,389.86113128950393,-10.406647378871721Q0,0,-335.27216294176816,-199.2299594848839A390,390,0,0,1,-327.81692676119326,-211.27248407884647Q0,0,389.2261688538068,-24.555844098459747Z"></path><path class="chord" style="fill: url(&quot;#linkGrad-chart-74e59736-1-9&quot;); opacity: 0.8;" d="M276.3265090418269,-275.2156616196781A390,390,0,0,1,285.44287842550347,-265.7486842040111Q0,0,282.73275134133644,268.6302129674881A390,390,0,0,1,273.5208289516498,278.0042376108723Q0,0,276.3265090418269,-275.2156616196781Z"></path><path class="chord" style="fill: url(&quot;#linkGrad-chart-74e59736-2-11&quot;); opacity: 0.8;" d="M323.39258959449967,-217.9844787946231A390,390,0,0,1,330.55385353089963,-206.96412712321074Q0,0,201.82907756656795,333.7139844966469A390,390,0,0,1,190.47012432150595,340.32503836913037Q0,0,323.39258959449967,-217.9844787946231Z"></path><path class="chord" style="fill: url(&quot;#linkGrad-chart-74e59736-1-8&quot;); opacity: 0.8;" d="M285.44287842550347,-265.7486842040111A390,390,0,0,1,294.1513148040643,-256.07616835433987Q0,0,318.315587874681,225.3335006518033A390,390,0,0,1,310.61950345820514,235.8294385172854Q0,0,285.44287842550347,-265.7486842040111Z"></path><path class="chord" style="fill: url(&quot;#linkGrad-chart-74e59736-1-3&quot;); opacity: 0.8;" d="M299.61221082499003,-249.6648215599501A390,390,0,0,1,307.4623253602157,-239.93107027662936Q0,0,332.6069327533368,-203.64829555981385A390,390,0,0,1,338.9648204819699,-192.88040459213556Q0,0,299.61221082499003,-249.6648215599501Z"></path><path class="chord" style="fill: url(&quot;#linkGrad-chart-74e59736-0-14&quot;); opacity: 0.8;" d="M84.43887987461093,-380.7493605582562A390,390,0,0,1,96.23117129592956,-377.9412145704851Q0,0,-23.75204697313699,389.2760463534661A390,390,0,0,1,-35.8386488939162,388.3498310099524Q0,0,84.43887987461093,-380.7493605582562Z"></path><path class="chord" style="fill: url(&quot;#linkGrad-chart-74e59736-18-19&quot;); opacity: 0.8;" d="M-31.500280027205733,-388.72578041365824A390,390,0,0,1,-19.65898068652403,-389.50420341553036Q0,0,-15.763020628568349,-389.68131489803733A390,390,0,0,1,-3.8999350003263733,-389.9805001624994Q0,0,-31.500280027205733,-388.72578041365824Z"></path><path class="chord" style="fill: url(&quot;#linkGrad-chart-74e59736-5-18&quot;); opacity: 0.8;" d="M389.9457031347372,-6.507580714474154A390,390,0,0,1,389.96824823999066,4.976481149669355Q0,0,-340.992770650141,-189.27210667274863A390,390,0,0,1,-335.27216294176816,-199.2299594848839Q0,0,389.9457031347372,-6.507580714474154Z"></path><path class="chord" style="fill: url(&quot;#linkGrad-chart-74e59736-0-15&quot;); opacity: 0.8;" d="M73.4424616643081,-383.02245994809056A390,390,0,0,1,84.43887987461093,-380.7493605582562Q0,0,-174.3872200968029,348.8396443452338A390,390,0,0,1,-184.35770621650423,343.674607963098Q0,0,73.4424616643081,-383.02245994809056Z"></path><path class="chord" style="fill: url(&quot;#linkGrad-chart-74e59736-8-16&quot;); opacity: 0.8;" d="M297.85368801120217,251.76016471659182A390,390,0,0,1,291.16246090130704,259.46949986827906Q0,0,-250.3627002104248,299.02929345357614A390,390,0,0,1,-258.1032826177072,292.37423877962294Q0,0,297.85368801120217,251.76016471659182Z"></path><path class="chord" style="fill: url(&quot;#linkGrad-chart-74e59736-7-18&quot;); opacity: 0.8;" d="M325.8369955753555,214.31344408232016A390,390,0,0,1,320.55296967904064,222.1391312442453Q0,0,-378.38767511952454,-94.46040079123708A390,390,0,0,1,-375.98988477756484,-103.59346767510736Q0,0,325.8369955753555,214.31344408232016Z"></path><path class="chord" style="fill: url(&quot;#linkGrad-chart-74e59736-3-9&quot;); opacity: 0.8;" d="M387.53043617132613,-43.8196421808952A390,390,0,0,1,388.3978578391942,-35.31436005260552Q0,0,288.55325114559696,262.3681025835764A390,390,0,0,1,282.73275134133644,268.6302129674881Q0,0,387.53043617132613,-43.8196421808952Z"></path><path class="chord" style="fill: url(&quot;#linkGrad-chart-74e59736-1-6&quot;); opacity: 0.8;" d="M294.1513148040643,-256.07616835433987A390,390,0,0,1,299.61221082499003,-249.6648215599501Q0,0,389.8989860079776,8.87584981570224A390,390,0,0,1,389.6164206598781,17.292910460211576Q0,0,294.1513148040643,-256.07616835433987Z"></path><path class="chord" style="fill: url(&quot;#linkGrad-chart-74e59736-13-18&quot;); opacity: 0.8;" d="M-4.68158265128513,389.97189999265225A390,390,0,0,1,-12.335969767868422,389.8048535483957Q0,0,-382.9184813195706,73.98267813423385A390,390,0,0,1,-384.2970018752694,66.45159403414767Q0,0,-4.68158265128513,389.97189999265225Z"></path><path class="chord" style="fill: url(&quot;#linkGrad-chart-74e59736-11-14&quot;); opacity: 0.8;" d="M62.56617013988728,384.94866456974063A390,390,0,0,1,55.12376012350318,386.0846682657141Q0,0,-16.233336542853117,389.66200582644245A390,390,0,0,1,-23.75204697313699,389.2760463534661Q0,0,62.56617013988728,384.94866456974063Z"></path><path class="chord" style="fill: url(&quot;#linkGrad-chart-74e59736-3-7&quot;); opacity: 0.8;" d="M388.3978578391942,-35.31436005260552A390,390,0,0,1,388.96115335917676,-28.446813134320674Q0,0,329.57252938644683,208.52325499526341A390,390,0,0,1,325.8369955753555,214.31344408232016Q0,0,388.3978578391942,-35.31436005260552Z"></path><path class="chord" style="fill: url(&quot;#linkGrad-chart-74e59736-10-18&quot;); opacity: 0.8;" d="M251.8879250307257,297.7456518972452A390,390,0,0,1,246.5881761555744,302.14941896397454Q0,0,-387.6638925797082,-42.62283883023802A390,390,0,0,1,-386.8503440301076,-49.46525370183983Q0,0,251.8879250307257,297.7456518972452Z"></path><path class="chord" style="fill: url(&quot;#linkGrad-chart-74e59736-3-15&quot;); opacity: 0.8;" d="M386.7288320286407,-50.40645273934094A390,390,0,0,1,387.53043617132613,-43.8196421808952Q0,0,-168.42708336257732,351.7560484056748A390,390,0,0,1,-174.3872200968029,348.8396443452338Q0,0,386.7288320286407,-50.40645273934094Z"></path><path class="chord" style="fill: url(&quot;#linkGrad-chart-74e59736-1-11&quot;); opacity: 0.8;" d="M271.7872912276087,-279.69924620413093A390,390,0,0,1,276.3265090418269,-275.2156616196781Q0,0,190.47012432150595,340.32503836913037A390,390,0,0,1,184.8772741345124,343.3953894690381Q0,0,271.7872912276087,-279.69924620413093Z"></path></g></svg>
