<svg xmlns="http://www.w3.org/2000/svg" viewBox="0 0 1150 1150" preserveAspectRatio="xMinYMin meet"><g transform="translate(575,575)"><defs><linearGradient id="linkGrad-chart-f8dc7a6d-8-28" gradientUnits="userSpaceOnUse" x1="383.66556956319454" y1="70.00521931791623" x2="-184.98496491446102" y2="-343.3373891023167"><stop offset="0%" stop-color="#B03860"></stop><stop offset="100%" stop-color="#4DB038"></stop></linearGradient><linearGradient id="linkGrad-chart-f8dc7a6d-20-28" gradientUnits="userSpaceOnUse" x1="13.018712488233268" y1="389.7826485685948" x2="-381.1156982755861" y2="-82.76970779163354"><stop offset="0%" stop-color="#38B04C"></stop><stop offset="100%" stop-color="#4DB038"></stop></linearGradient><linearGradient id="linkGrad-chart-f8dc7a6d-0-8" gradientUnits="userSpaceOnUse" x1="110.59707162472236" y1="-373.98968936059725" x2="371.0765601792732" y2="-120.00911001052472"><stop offset="0%" stop-color="#B03838"></stop><stop offset="100%" stop-color="#B03860"></stop></linearGradient><linearGradient id="linkGrad-chart-f8dc7a6d-20-21" gradientUnits="userSpaceOnUse" x1="-178.41408000355975" y1="346.79737031367955" x2="-264.63073259233937" y2="286.4796246989335"><stop offset="0%" stop-color="#38B04C"></stop><stop offset="100%" stop-color="#B03848"></stop></linearGradient><linearGradient id="linkGrad-chart-f8dc7a6d-14-28" gradientUnits="userSpaceOnUse" x1="266.7506428727195" y1="284.50675655771494" x2="-310.19575150337363" y2="-236.38653884952348"><stop offset="0%" stop-color="#3842B0"></stop><stop offset="100%" stop-color="#4DB038"></stop></linearGradient><linearGradient id="linkGrad-chart-f8dc7a6d-2-25" gradientUnits="userSpaceOnUse" x1="232.76164352520874" y1="-312.9249387687783" x2="-371.97633207622124" y2="117.19047902931705"><stop offset="0%" stop-color="#7EB038"></stop><stop offset="100%" stop-color="#38B08D"></stop></linearGradient><linearGradient id="linkGrad-chart-f8dc7a6d-14-25" gradientUnits="userSpaceOnUse" x1="220.85637540924986" y1="321.43811448098137" x2="-358.6807115523749" y2="153.12787845549892"><stop offset="0%" stop-color="#3842B0"></stop><stop offset="100%" stop-color="#38B08D"></stop></linearGradient><linearGradient id="linkGrad-chart-f8dc7a6d-0-28" gradientUnits="userSpaceOnUse" x1="13.611883473591039" y1="-389.76238482991323" x2="-17.508761773317026" y2="-389.6067803069721"><stop offset="0%" stop-color="#B03838"></stop><stop offset="100%" stop-color="#4DB038"></stop></linearGradient><linearGradient id="linkGrad-chart-f8dc7a6d-6-28" gradientUnits="userSpaceOnUse" x1="317.54598789759046" y1="-226.4167519644767" x2="-51.863869339535874" y2="-386.5360773034408"><stop offset="0%" stop-color="#5638B0"></stop><stop offset="100%" stop-color="#4DB038"></stop></linearGradient><linearGradient id="linkGrad-chart-f8dc7a6d-20-24" gradientUnits="userSpaceOnUse" x1="-118.14928897873311" y1="371.6729012368534" x2="-335.16428007854256" y2="199.41139726563335"><stop offset="0%" stop-color="#38B04C"></stop><stop offset="100%" stop-color="#B038B0"></stop></linearGradient><linearGradient id="linkGrad-chart-f8dc7a6d-1-9" gradientUnits="userSpaceOnUse" x1="191.63650720748848" y1="-339.66961757760174" x2="335.4489104765948" y2="198.93222076894799"><stop offset="0%" stop-color="#385BB0"></stop><stop offset="100%" stop-color="#3883B0"></stop></linearGradient><linearGradient id="linkGrad-chart-f8dc7a6d-20-27" gradientUnits="userSpaceOnUse" x1="-100.32347845441302" y1="376.8755758480601" x2="-385.31105836179523" y2="60.29418134541028"><stop offset="0%" stop-color="#38B04C"></stop><stop offset="100%" stop-color="#4738B0"></stop></linearGradient><linearGradient id="linkGrad-chart-f8dc7a6d-21-28" gradientUnits="userSpaceOnUse" x1="-304.5392852883613" y1="243.63050653818803" x2="-388.8328370131663" y2="30.150039142470092"><stop offset="0%" stop-color="#B03848"></stop><stop offset="100%" stop-color="#4DB038"></stop></linearGradient><linearGradient id="linkGrad-chart-f8dc7a6d-3-5" gradientUnits="userSpaceOnUse" x1="282.1092403108863" y1="-269.2849355816522" x2="300.2969695440548" y2="-248.84077254874657"><stop offset="0%" stop-color="#B038A1"></stop><stop offset="100%" stop-color="#B07938"></stop></linearGradient><linearGradient id="linkGrad-chart-f8dc7a6d-0-24" gradientUnits="userSpaceOnUse" x1="34.105651035863445" y1="-388.50586168991055" x2="-343.4412324189373" y2="184.79209905881112"><stop offset="0%" stop-color="#B03838"></stop><stop offset="100%" stop-color="#B038B0"></stop></linearGradient><linearGradient id="linkGrad-chart-f8dc7a6d-17-26" gradientUnits="userSpaceOnUse" x1="176.0238518222237" y1="348.01667142490146" x2="-380.89782307613774" y2="83.7666304435083"><stop offset="0%" stop-color="#38ABB0"></stop><stop offset="100%" stop-color="#B06A38"></stop></linearGradient><linearGradient id="linkGrad-chart-f8dc7a6d-2-20" gradientUnits="userSpaceOnUse" x1="256.21578735580334" y1="-294.0297099098078" x2="122.83643034604879" y2="370.1502551395045"><stop offset="0%" stop-color="#7EB038"></stop><stop offset="100%" stop-color="#38B04C"></stop></linearGradient><linearGradient id="linkGrad-chart-f8dc7a6d-12-18" gradientUnits="userSpaceOnUse" x1="315.22945892843643" y1="229.63098271723968" x2="161.04363668882746" y2="355.1970538757845"><stop offset="0%" stop-color="#38B074"></stop><stop offset="100%" stop-color="#B09238"></stop></linearGradient><linearGradient id="linkGrad-chart-f8dc7a6d-19-28" gradientUnits="userSpaceOnUse" x1="147.2030315550916" y1="361.15269277826343" x2="-342.5534918471764" y2="-186.43257554222237"><stop offset="0%" stop-color="#6F38B0"></stop><stop offset="100%" stop-color="#4DB038"></stop></linearGradient><linearGradient id="linkGrad-chart-f8dc7a6d-16-28" gradientUnits="userSpaceOnUse" x1="193.42991989453722" y1="338.6515408049887" x2="-337.62395789972436" y2="-195.21798854645843"><stop offset="0%" stop-color="#B03888"></stop><stop offset="100%" stop-color="#4DB038"></stop></linearGradient><linearGradient id="linkGrad-chart-f8dc7a6d-2-8" gradientUnits="userSpaceOnUse" x1="271.404421002416" y1="-280.0707772337974" x2="341.1779849067372" y2="-188.9380390894809"><stop offset="0%" stop-color="#7EB038"></stop><stop offset="100%" stop-color="#B03860"></stop></linearGradient><linearGradient id="linkGrad-chart-f8dc7a6d-2-28" gradientUnits="userSpaceOnUse" x1="209.74055788198876" y1="-328.7991763665963" x2="-35.072904310767996" y2="-388.4197360886902"><stop offset="0%" stop-color="#7EB038"></stop><stop offset="100%" stop-color="#4DB038"></stop></linearGradient><linearGradient id="linkGrad-chart-f8dc7a6d-7-28" gradientUnits="userSpaceOnUse" x1="333.1909766819284" y1="-202.69132457444405" x2="-67.82861641931834" y2="-384.0563484628798"><stop offset="0%" stop-color="#3DB038"></stop><stop offset="100%" stop-color="#4DB038"></stop></linearGradient><linearGradient id="linkGrad-chart-f8dc7a6d-2-14" gradientUnits="userSpaceOnUse" x1="266.1808757528515" y1="-285.0398943717266" x2="299.4270873804683" y2="249.88681306313342"><stop offset="0%" stop-color="#7EB038"></stop><stop offset="100%" stop-color="#3842B0"></stop></linearGradient><linearGradient id="linkGrad-chart-f8dc7a6d-24-28" gradientUnits="userSpaceOnUse" x1="-348.02694513855903" y1="176.0035381960329" x2="-387.8507955962889" y2="40.88716614447305"><stop offset="0%" stop-color="#B038B0"></stop><stop offset="100%" stop-color="#4DB038"></stop></linearGradient><linearGradient id="linkGrad-chart-f8dc7a6d-11-13" gradientUnits="userSpaceOnUse" x1="322.513201328193" y1="219.2834580378566" x2="307.6138568601951" y2="239.73676202784466"><stop offset="0%" stop-color="#9738B0"></stop><stop offset="100%" stop-color="#B05138"></stop></linearGradient><linearGradient id="linkGrad-chart-f8dc7a6d-4-15" gradientUnits="userSpaceOnUse" x1="291.38246218660527" y1="-259.2224155625272" x2="203.29928222622846" y2="332.82037474634916"><stop offset="0%" stop-color="#38B09C"></stop><stop offset="100%" stop-color="#65B038"></stop></linearGradient><linearGradient id="linkGrad-chart-f8dc7a6d-6-8" gradientUnits="userSpaceOnUse" x1="328.189856429935" y1="-210.6927102120495" x2="337.9970600011653" y2="-194.57129138330933"><stop offset="0%" stop-color="#5638B0"></stop><stop offset="100%" stop-color="#B03860"></stop></linearGradient><linearGradient id="linkGrad-chart-f8dc7a6d-20-23" gradientUnits="userSpaceOnUse" x1="-129.6844807588108" y1="367.8069268656011" x2="-324.4701092212963" y2="216.37732834546244"><stop offset="0%" stop-color="#38B04C"></stop><stop offset="100%" stop-color="#8DB038"></stop></linearGradient><linearGradient id="linkGrad-chart-f8dc7a6d-21-27" gradientUnits="userSpaceOnUse" x1="-310.7302744433891" y1="235.6834668455471" x2="-383.4619116606506" y2="71.11232175621463"><stop offset="0%" stop-color="#B03848"></stop><stop offset="100%" stop-color="#4738B0"></stop></linearGradient><linearGradient id="linkGrad-chart-f8dc7a6d-5-10" gradientUnits="userSpaceOnUse" x1="306.14600045548343" y1="-241.60841542692822" x2="327.409392129363" y2="211.90349205589087"><stop offset="0%" stop-color="#B07938"></stop><stop offset="100%" stop-color="#A6B038"></stop></linearGradient><linearGradient id="linkGrad-chart-f8dc7a6d-2-17" gradientUnits="userSpaceOnUse" x1="262.39397522042765" y1="-288.5297242365535" x2="183.87615376201632" y2="343.9324934891836"><stop offset="0%" stop-color="#7EB038"></stop><stop offset="100%" stop-color="#38ABB0"></stop></linearGradient><linearGradient id="linkGrad-chart-f8dc7a6d-0-2" gradientUnits="userSpaceOnUse" x1="178.3442347955966" y1="-346.8332941272696" x2="204.64151036222896" y2="-331.9967654009083"><stop offset="0%" stop-color="#B03838"></stop><stop offset="100%" stop-color="#7EB038"></stop></linearGradient><linearGradient id="linkGrad-chart-f8dc7a6d-8-27" gradientUnits="userSpaceOnUse" x1="342.8828334644312" y1="185.82616208543706" x2="-386.8182486481803" y2="49.715616387152906"><stop offset="0%" stop-color="#B03860"></stop><stop offset="100%" stop-color="#4738B0"></stop></linearGradient><linearGradient id="linkGrad-chart-f8dc7a6d-21-24" gradientUnits="userSpaceOnUse" x1="-315.6587873559347" y1="229.0404548654687" x2="-328.93717531161406" y2="209.5240671092857"><stop offset="0%" stop-color="#B03848"></stop><stop offset="100%" stop-color="#B038B0"></stop></linearGradient><linearGradient id="linkGrad-chart-f8dc7a6d-21-25" gradientUnits="userSpaceOnUse" x1="-313.29842003865076" y1="232.25869198220582" x2="-351.94765251264994" y2="168.02633689643721"><stop offset="0%" stop-color="#B03848"></stop><stop offset="100%" stop-color="#38B08D"></stop></linearGradient><linearGradient id="linkGrad-chart-f8dc7a6d-6-20" gradientUnits="userSpaceOnUse" x1="325.91056505395875" y1="-214.201548981816" x2="130.44668752758923" y2="367.5372929555306"><stop offset="0%" stop-color="#5638B0"></stop><stop offset="100%" stop-color="#38B04C"></stop></linearGradient><linearGradient id="linkGrad-chart-f8dc7a6d-19-20" gradientUnits="userSpaceOnUse" x1="140.77207413169955" y1="363.70760666318114" x2="133.86849595510412" y2="366.30482632736124"><stop offset="0%" stop-color="#6F38B0"></stop><stop offset="100%" stop-color="#38B04C"></stop></linearGradient><linearGradient id="linkGrad-chart-f8dc7a6d-13-22" gradientUnits="userSpaceOnUse" x1="304.8636361045841" y1="243.22451229489954" x2="-320.044321113213" y2="222.87133625296593"><stop offset="0%" stop-color="#B05138"></stop><stop offset="100%" stop-color="#386AB0"></stop></linearGradient></defs><g class="group"><path style="fill: rgb(176, 56, 56);" d="M2.626867384171073e-14,-429.00000000000006A429.00000000000006,429.00000000000006,0,0,1,198.1596040484375,-380.4914865320465L181.9465455353835,-349.3603649066972A393.9,393.9,0,0,0,2.411941870920712e-14,-393.9Z"></path><text dy=".35em" class="titles" transform="rotate(-76.24477131031439)translate(439.00000000000006)">Aang</text></g><g class="group"><path style="fill: rgb(56, 91, 176);" d="M201.95454760119108,-378.49089910220863A429.00000000000006,429.00000000000006,0,0,1,219.5291561721693,-368.5755683578815L201.5676797580827,-338.4193854922366A393.9,393.9,0,0,0,185.43099370654815,-347.52346190293696Z"></path><text dy=".35em" class="titles" transform="rotate(-60.56896015153427)translate(439.00000000000006)">Asami Sato</text></g><g class="group"><path style="fill: rgb(126, 176, 56);" d="M223.20387406045546,-366.36188475932425A429.00000000000006,429.00000000000006,0,0,1,301.8328755087979,-304.8572047075328L277.13745842171437,-279.91434250418916A393.9,393.9,0,0,0,204.9417389100545,-336.386821460834Z"></path><text dy=".35em" class="titles" transform="rotate(-51.966996404156575)translate(439.00000000000006)">Azula</text></g><g class="group"><path style="fill: rgb(176, 56, 161);" d="M304.86630522858104,-301.82368352446053A429.00000000000006,429.00000000000006,0,0,1,315.6707983278524,-290.5046421024221L289.84318755557354,-266.73608047586026A393.9,393.9,0,0,0,279.9226984371516,-277.1290185088228Z"></path><text dy=".35em" class="titles" transform="rotate(-43.667657144967215)translate(439.00000000000006)">Bato</text></g><g class="group"><path style="fill: rgb(56, 176, 156);" d="M318.560012923291,-287.33346161961833A429.00000000000006,429.00000000000006,0,0,1,322.4663650761599,-282.9424736489183L296.0827533881104,-259.7926348958249A393.9,393.9,0,0,0,292.4960118659308,-263.8243602143768Z"></path><text dy=".35em" class="titles" transform="rotate(-41.65723303094178)translate(439.00000000000006)">Bolin</text></g><g class="group"><path style="fill: rgb(176, 121, 56);" d="M325.27961947191267,-279.70371673649197A429.00000000000006,429.00000000000006,0,0,1,338.2467618444028,-263.87521312502224L310.57202678440615,-242.28542296024767A393.9,393.9,0,0,0,298.6658324242107,-256.8188671853244Z"></path><text dy=".35em" class="titles" transform="rotate(-39.32527039821623)translate(439.00000000000006)">Hakoda</text></g><g class="group"><path style="fill: rgb(86, 56, 176);" d="M340.8685577995142,-260.4796082300481A429.00000000000006,429.00000000000006,0,0,1,362.36064393834886,-229.64268706968485L332.71295488884755,-210.8537399458015A393.9,393.9,0,0,0,312.97931216137204,-239.16764028395318Z"></path><text dy=".35em" class="titles" transform="rotate(-34.87493634817231)translate(439.00000000000006)">Jet</text></g><g class="group"><path style="fill: rgb(61, 176, 56);" d="M364.6389146542421,-226.0076589847707A429.00000000000006,429.00000000000006,0,0,1,368.3557699025084,-219.89776438047366L338.21757054684855,-201.90612911298032A393.9,393.9,0,0,0,334.80482163707677,-207.51612324965305Z"></path><text dy=".35em" class="titles" transform="rotate(-31.313561732181633)translate(439.00000000000006)">Jin</text></g><g class="group"><path style="fill: rgb(176, 56, 96);" d="M370.53629326185495,-216.2032732771747A429.00000000000006,429.00000000000006,0,0,1,376.12027793170927,206.33597972378408L345.3468006463875,189.4539450191108A393.9,393.9,0,0,0,340.2196874495213,-198.51391455449672Z"></path><text dy=".35em" class="titles" transform="rotate(-0.7571370682655214)translate(439.00000000000006)">Katara</text></g><g class="group"><path style="fill: rgb(56, 131, 176);" d="M374.0381466664491,210.08680310368837A429.00000000000006,429.00000000000006,0,0,1,363.74533349963434,227.44303101488916L333.98435166784606,208.83405575003454A393.9,393.9,0,0,0,343.43502557555775,192.8978828497502Z"></path><text dy=".35em" class="titles" transform="rotate(30.669332999192065)translate(439.00000000000006)">Korra</text></g><g class="group"><path style="fill: rgb(166, 176, 56);" d="M361.4527539813529,231.06905166918315A429.00000000000006,429.00000000000006,0,0,1,358.8365663432462,235.1112899351903L329.47721091516235,215.87491166776562A393.9,393.9,0,0,0,331.87934683742395,212.16340198715903Z"></path><text dy=".35em" class="titles" transform="rotate(32.91145398698667)translate(439.00000000000006)">Kya</text></g><g class="group"><path style="fill: rgb(151, 56, 176);" d="M356.467550950111,238.6878403262933A429.00000000000006,429.00000000000006,0,0,1,353.04362141101274,243.72361678958725L324.1582342046571,223.7825935977119A393.9,393.9,0,0,0,327.30202405419277,219.15883520868744Z"></path><text dy=".35em" class="titles" transform="rotate(34.21260195682069)translate(439.00000000000006)">Kya II</text></g><g class="group"><path style="fill: rgb(56, 176, 116);" d="M350.5887738295471,247.24180808409963A429.00000000000006,429.00000000000006,0,0,1,342.83433248150465,257.88683656201067L314.7842507330178,236.7870044796643A393.9,393.9,0,0,0,321.90423778894774,227.0129328772187Z"></path><text dy=".35em" class="titles" transform="rotate(36.07171382675193)translate(439.00000000000006)">Kyoshi</text></g><g class="group"><path style="fill: rgb(176, 81, 56);" d="M340.23836552303214,261.3022285136803A429.00000000000006,429.00000000000006,0,0,1,334.19874884455993,268.98363569319747L306.8552148481868,246.97588368193584A393.9,393.9,0,0,0,312.4006810711477,239.9229552716519Z"></path><text dy=".35em" class="titles" transform="rotate(38.17670809333623)translate(439.00000000000006)">Lin Beifong</text></g><g class="group"><path style="fill: rgb(56, 66, 176);" d="M331.49224751981666,272.3121184124215A429.00000000000006,429.00000000000006,0,0,1,229.7659353009355,362.2825071339857L210.96690423085892,332.6412110957504A393.9,393.9,0,0,0,304.3701545409225,250.03203599685972Z"></path><text dy=".35em" class="titles" transform="rotate(48.509305632540986)translate(439.00000000000006)">Mai</text></g><g class="group"><path style="fill: rgb(101, 176, 56);" d="M226.13168240868208,364.56201421845776A429.00000000000006,429.00000000000006,0,0,1,221.1162458208095,367.62563272181035L203.02491661728868,337.54717186275303A393.9,393.9,0,0,0,207.62999930251715,334.7342130551293Z"></path><text dy=".35em" class="titles" transform="rotate(58.58183525220886)translate(439.00000000000006)">Opal</text></g><g class="group"><path style="fill: rgb(176, 56, 136);" d="M217.42899504406435,369.81837719903575A429.00000000000006,429.00000000000006,0,0,1,208.0833475450429,375.15639468686777L191.05834638226662,344.461780576124A393.9,393.9,0,0,0,199.63934999500452,339.56050997366003Z"></path><text dy=".35em" class="titles" transform="rotate(60.265992339906234)translate(439.00000000000006)">Original Female Character</text></g><g class="group"><path style="fill: rgb(56, 171, 176);" d="M204.3214420432513,377.21843581851397A429.00000000000006,429.00000000000006,0,0,1,186.99477504909044,386.1009636148816L171.69520254507393,354.510884773664A393.9,393.9,0,0,0,187.60423314880342,346.3551092515446Z"></path><text dy=".35em" class="titles" transform="rotate(62.858022892168634)translate(439.00000000000006)">Ozai</text></g><g class="group"><path style="fill: rgb(176, 146, 56);" d="M183.12448010194234,387.95157531242654A429.00000000000006,429.00000000000006,0,0,1,171.12978022005026,393.38988080762493L157.12825274750065,361.20343601427373A393.9,393.9,0,0,0,168.1415680936016,356.2100827868643Z"></path><text dy=".35em" class="titles" transform="rotate(65.61082270378108)translate(439.00000000000006)">Rangi</text></g><g class="group"><path style="fill: rgb(111, 56, 176);" d="M167.18739055891925,395.08148075820947A429.00000000000006,429.00000000000006,0,0,1,153.06479513190047,400.76448007680193L140.54131189383585,367.974658979609A393.9,393.9,0,0,0,153.50842224046218,362.7566323325377Z"></path><text dy=".35em" class="titles" transform="rotate(68.07991205771694)translate(439.00000000000006)">Reader</text></g><g class="group"><path style="fill: rgb(56, 176, 76);" d="M149.04956394889874,402.2750644604301A429.00000000000006,429.00000000000006,0,0,1,-244.16190136793202,352.74064965693464L-224.18501852873754,323.8800510486399A393.9,393.9,0,0,0,136.854599625807,369.36165009548574Z"></path><text dy=".35em" class="titles" text-anchor="end" transform="rotate(97.17995637222666)translate(439.00000000000006)rotate(180)">Sokka</text></g><g class="group"><path style="fill: rgb(176, 56, 72);" d="M-247.67704108135234,350.28143445119406A429.00000000000006,429.00000000000006,0,0,1,-348.509249044868,250.1645525053104L-319.99485594119693,229.6965436639668A393.9,393.9,0,0,0,-227.41255590196891,321.6220443597327Z"></path><text dy=".35em" class="titles" text-anchor="end" transform="rotate(134.79604292466138)translate(439.00000000000006)rotate(180)">Suki</text></g><g class="group"><path style="fill: rgb(56, 106, 176);" d="M-350.99342755879695,246.66700997605582A429.00000000000006,429.00000000000006,0,0,1,-353.0975953568416,243.64541480031215L-324.2077921003727,223.71078995301383A393.9,393.9,0,0,0,-322.27578348580437,226.48516370528756Z"></path><text dy=".35em" class="titles" text-anchor="end" transform="rotate(145.1475544943779)translate(439.00000000000006)rotate(180)">Tenzin</text></g><g class="group"><path style="fill: rgb(141, 176, 56);" d="M-355.5163541648343,240.10231552682734A429.00000000000006,429.00000000000006,0,0,1,-358.30563189961475,235.919634937446L-328.9897165623735,216.61711935165494A393.9,393.9,0,0,0,-326.42865246043874,220.4575806200869Z"></path><text dy=".35em" class="titles" text-anchor="end" transform="rotate(146.30211872774566)translate(439.00000000000006)rotate(180)">Toph Bei Fong</text></g><g class="group"><path style="fill: rgb(176, 56, 176);" d="M-360.64687379694516,232.3248424523093A429.00000000000006,429.00000000000006,0,0,1,-384.3042798854298,190.65996030037687L-352.86120244025824,175.06050900307326A393.9,393.9,0,0,0,-331.1394023044678,213.31644625166578Z"></path><text dy=".35em" class="titles" text-anchor="end" transform="rotate(150.41200022857768)translate(439.00000000000006)rotate(180)">Toph Beifong</text></g><g class="group"><path style="fill: rgb(56, 176, 141);" d="M-386.1916326580643,186.8074486333421A429.00000000000006,429.00000000000006,0,0,1,-416.32162878803695,103.52440003823264L-382.25895006901567,95.05422185328632A393.9,393.9,0,0,0,-354.5941354405863,171.52320283606863Z"></path><text dy=".35em" class="titles" text-anchor="end" transform="rotate(160.1109777456382)translate(439.00000000000006)rotate(180)">Ty Lee</text></g><g class="group"><path style="fill: rgb(176, 106, 56);" d="M-417.33603962646623,99.35607696007666A429.00000000000006,429.00000000000006,0,0,1,-420.5145229718757,84.90309752733332L-386.1087892741767,77.95648045691512A393.9,393.9,0,0,0,-383.190363657028,91.22694339061583Z"></path><text dy=".35em" class="titles" text-anchor="end" transform="rotate(167.5970136928213)translate(439.00000000000006)rotate(180)">Ursa</text></g><g class="group"><path style="fill: rgb(71, 56, 176);" d="M-421.3425142457687,80.69377726351786A429.00000000000006,429.00000000000006,0,0,1,-425.774322237986,52.509299393380985L-390.9382413276053,48.213083988467986A393.9,393.9,0,0,0,-386.8690358074785,74.09155912377547Z"></path><text dy=".35em" class="titles" text-anchor="end" transform="rotate(171.06381815625315)translate(439.00000000000006)rotate(180)">Yue</text></g><g class="group"><path style="fill: rgb(77, 176, 56);" d="M-426.27811794170714,48.24900168994258A429.00000000000006,429.00000000000006,0,0,1,-4.289928500359392,-428.97855017874946L-3.9389343503299865,-393.8803051641244A393.9,393.9,0,0,0,-391.4008173828401,44.30135609712909Z"></path><text dy=".35em" class="titles" text-anchor="end" transform="rotate(221.48470336515692)translate(439.00000000000006)rotate(180)">Zuko</text></g><path class="hiddenArcs" id="arc-chart-f8dc7a6d-0" d="M2.626867384171073e-14 -429.00000000000006A429.00000000000006 429.00000000000006 0 0 1 198.1596040484375 -380.4914865320465" style="fill: none;"></path><path class="hiddenArcs" id="arc-chart-f8dc7a6d-1" d="M201.95454760119108 -378.49089910220863A429.00000000000006 429.00000000000006 0 0 1 219.5291561721693 -368.5755683578815" style="fill: none;"></path><path class="hiddenArcs" id="arc-chart-f8dc7a6d-2" d="M223.20387406045546 -366.36188475932425A429.00000000000006 429.00000000000006 0 0 1 301.8328755087979 -304.8572047075328" style="fill: none;"></path><path class="hiddenArcs" id="arc-chart-f8dc7a6d-3" d="M304.86630522858104 -301.82368352446053A429.00000000000006 429.00000000000006 0 0 1 315.6707983278524 -290.5046421024221" style="fill: none;"></path><path class="hiddenArcs" id="arc-chart-f8dc7a6d-4" d="M318.560012923291 -287.33346161961833A429.00000000000006 429.00000000000006 0 0 1 322.4663650761599 -282.9424736489183" style="fill: none;"></path><path class="hiddenArcs" id="arc-chart-f8dc7a6d-5" d="M325.27961947191267 -279.70371673649197A429.00000000000006 429.00000000000006 0 0 1 338.2467618444028 -263.87521312502224" style="fill: none;"></path><path class="hiddenArcs" id="arc-chart-f8dc7a6d-6" d="M340.8685577995142 -260.4796082300481A429.00000000000006 429.00000000000006 0 0 1 362.36064393834886 -229.64268706968485" style="fill: none;"></path><path class="hiddenArcs" id="arc-chart-f8dc7a6d-7" d="M364.6389146542421 -226.0076589847707A429.00000000000006 429.00000000000006 0 0 1 368.3557699025084 -219.89776438047366" style="fill: none;"></path><path class="hiddenArcs" id="arc-chart-f8dc7a6d-8" d="M376.12027793170927 206.33597972378408A429.00000000000006 429.00000000000006 0 0 0 370.53629326185495 -216.2032732771747" style="fill: none;"></path><path class="hiddenArcs" id="arc-chart-f8dc7a6d-9" d="M363.74533349963434 227.44303101488916A429.00000000000006 429.00000000000006 0 0 0 374.0381466664491 210.08680310368837" style="fill: none;"></path><path class="hiddenArcs" id="arc-chart-f8dc7a6d-10" d="M358.8365663432462 235.1112899351903A429.00000000000006 429.00000000000006 0 0 0 361.4527539813529 231.06905166918315" style="fill: none;"></path><path class="hiddenArcs" id="arc-chart-f8dc7a6d-11" d="M353.04362141101274 243.72361678958725A429.00000000000006 429.00000000000006 0 0 0 356.467550950111 238.6878403262933" style="fill: none;"></path><path class="hiddenArcs" id="arc-chart-f8dc7a6d-12" d="M342.83433248150465 257.88683656201067A429.00000000000006 429.00000000000006 0 0 0 350.5887738295471 247.24180808409963" style="fill: none;"></path><path class="hiddenArcs" id="arc-chart-f8dc7a6d-13" d="M334.19874884455993 268.98363569319747A429.00000000000006 429.00000000000006 0 0 0 340.23836552303214 261.3022285136803" style="fill: none;"></path><path class="hiddenArcs" id="arc-chart-f8dc7a6d-14" d="M229.7659353009355 362.2825071339857A429.00000000000006 429.00000000000006 0 0 0 331.49224751981666 272.3121184124215" style="fill: none;"></path><path class="hiddenArcs" id="arc-chart-f8dc7a6d-15" d="M221.1162458208095 367.62563272181035A429.00000000000006 429.00000000000006 0 0 0 226.13168240868208 364.56201421845776" style="fill: none;"></path><path class="hiddenArcs" id="arc-chart-f8dc7a6d-16" d="M208.0833475450429 375.15639468686777A429.00000000000006 429.00000000000006 0 0 0 217.42899504406435 369.81837719903575" style="fill: none;"></path><path class="hiddenArcs" id="arc-chart-f8dc7a6d-17" d="M186.99477504909044 386.1009636148816A429.00000000000006 429.00000000000006 0 0 0 204.3214420432513 377.21843581851397" style="fill: none;"></path><path class="hiddenArcs" id="arc-chart-f8dc7a6d-18" d="M171.12978022005026 393.38988080762493A429.00000000000006 429.00000000000006 0 0 0 183.12448010194234 387.95157531242654" style="fill: none;"></path><path class="hiddenArcs" id="arc-chart-f8dc7a6d-19" d="M153.06479513190047 400.76448007680193A429.00000000000006 429.00000000000006 0 0 0 167.18739055891925 395.08148075820947" style="fill: none;"></path><path class="hiddenArcs" id="arc-chart-f8dc7a6d-20" d="M-244.16190136793202 352.74064965693464A429.00000000000006 429.00000000000006 0 0 0 149.04956394889874 402.2750644604301" style="fill: none;"></path><path class="hiddenArcs" id="arc-chart-f8dc7a6d-21" d="M-348.509249044868 250.1645525053104A429.00000000000006 429.00000000000006 0 0 0 -247.67704108135234 350.28143445119406" style="fill: none;"></path><path class="hiddenArcs" id="arc-chart-f8dc7a6d-22" d="M-353.0975953568416 243.64541480031215A429.00000000000006 429.00000000000006 0 0 0 -350.99342755879695 246.66700997605582" style="fill: none;"></path><path class="hiddenArcs" id="arc-chart-f8dc7a6d-23" d="M-358.30563189961475 235.919634937446A429.00000000000006 429.00000000000006 0 0 0 -355.5163541648343 240.10231552682734" style="fill: none;"></path><path class="hiddenArcs" id="arc-chart-f8dc7a6d-24" d="M-384.3042798854298 190.65996030037687A429.00000000000006 429.00000000000006 0 0 0 -360.64687379694516 232.3248424523093" style="fill: none;"></path><path class="hiddenArcs" id="arc-chart-f8dc7a6d-25" d="M-416.32162878803695 103.52440003823264A429.00000000000006 429.00000000000006 0 0 0 -386.1916326580643 186.8074486333421" style="fill: none;"></path><path class="hiddenArcs" id="arc-chart-f8dc7a6d-26" d="M-420.5145229718757 84.90309752733332A429.00000000000006 429.00000000000006 0 0 0 -417.33603962646623 99.35607696007666" style="fill: none;"></path><path class="hiddenArcs" id="arc-chart-f8dc7a6d-27" d="M-425.774322237986 52.509299393380985A429.00000000000006 429.00000000000006 0 0 0 -421.3425142457687 80.69377726351786" style="fill: none;"></path><path class="hiddenArcs" id="arc-chart-f8dc7a6d-28" d="M-4.289928500359392 -428.97855017874946A429.00000000000006 429.00000000000006 0 0 0 -426.27811794170714 48.24900168994258" style="fill: none;"></path><path class="chord" style="fill: url(&quot;#linkGrad-chart-f8dc7a6d-8-28&quot;); opacity: 0.8;" d="M386.68028909182743,-50.77749528935783A390,390,0,0,1,343.8291645390458,184.06929568068048Q0,0,-281.1888358211935,-270.24588546270576A390,390,0,0,1,-71.02745974955366,-383.4776394544088Q0,0,386.68028909182743,-50.77749528935783Z"></path><path class="chord" style="fill: url(&quot;#linkGrad-chart-f8dc7a6d-20-28&quot;); opacity: 0.8;" d="M116.98678774080325,372.04044335809544A390,390,0,0,1,-91.90151309430209,379.0172976144728Q0,0,-389.35740230088936,22.378857734553396A390,390,0,0,1,-345.00031333167675,-181.86474040078488Q0,0,116.98678774080325,372.04044335809544Z"></path><path class="chord" style="fill: url(&quot;#linkGrad-chart-f8dc7a6d-0-8&quot;); opacity: 0.8;" d="M40.99338444724792,-387.83958337379664A390,390,0,0,1,176.5385539463451,-347.7558611591376Q0,0,343.18535963100953,-185.2668587063931A390,390,0,0,1,386.68028909182743,-50.77749528935783Q0,0,40.99338444724792,-387.83958337379664Z"></path><path class="chord" style="fill: url(&quot;#linkGrad-chart-f8dc7a6d-20-21&quot;); opacity: 0.8;" d="M-131.8374031383169,367.0407322542621A390,390,0,0,1,-221.96536487993816,320.6733178699405Q0,0,-225.160946437593,318.4376676829037A390,390,0,0,1,-299.61313917269194,249.6637074848588Q0,0,-131.8374031383169,367.0407322542621Z"></path><path class="chord" style="fill: url(&quot;#linkGrad-chart-f8dc7a6d-14-28&quot;); opacity: 0.8;" d="M297.4795664073159,252.20211650601854A390,390,0,0,1,232.53544713493307,313.09306256408297Q0,0,-335.1485932595548,-199.4377608080815A390,390,0,0,1,-281.1888358211935,-270.24588546270576Q0,0,297.4795664073159,252.20211650601854Z"></path><path class="chord" style="fill: url(&quot;#linkGrad-chart-f8dc7a6d-2-25&quot;); opacity: 0.8;" d="M213.0942750709183,-326.635622570472A390,390,0,0,1,251.54940215956444,-298.03170682523984Q0,0,-364.07275190069925,139.82500249759306A390,390,0,0,1,-378.4742079891244,94.11309094384785Q0,0,213.0942750709183,-326.635622570472Z"></path><path class="chord" style="fill: url(&quot;#linkGrad-chart-f8dc7a6d-14-25&quot;); opacity: 0.8;" d="M232.53544713493307,313.09306256408297A390,390,0,0,1,208.87812300085042,329.3477337581688Q0,0,-352.8027882859752,166.22332140118408A390,390,0,0,1,-364.07275190069925,139.82500249759306Q0,0,232.53544713493307,313.09306256408297Z"></path><path class="chord" style="fill: url(&quot;#linkGrad-chart-f8dc7a6d-0-28&quot;); opacity: 0.8;" d="M2.388061258337339e-14,-390A390,390,0,0,1,27.207180331762675,-389.049828863084Q0,0,-31.096253431400793,-388.75830926493404A390,390,0,0,1,-3.8999350003267197,-389.9805001624994Q0,0,2.388061258337339e-14,-390Z"></path><path class="chord" style="fill: url(&quot;#linkGrad-chart-f8dc7a6d-6-28&quot;); opacity: 0.8;" d="M309.8805070904674,-236.79964384549822A390,390,0,0,1,324.8637254925372,-215.78591209601575Q0,0,-64.62506053752612,-384.6083742594811A390,390,0,0,1,-39.045882246754346,-388.0404863922998Q0,0,309.8805070904674,-236.79964384549822Z"></path><path class="chord" style="fill: url(&quot;#linkGrad-chart-f8dc7a6d-20-24&quot;); opacity: 0.8;" d="M-108.69563398403729,374.54673827548976A390,390,0,0,1,-127.52710585411114,368.5604933690999Q0,0,-330.00494437555466,207.83824645066426A390,390,0,0,1,-340.10847924636,190.8565491271607Q0,0,-108.69563398403729,374.54673827548976Z"></path><path class="chord" style="fill: url(&quot;#linkGrad-chart-f8dc7a6d-1-9&quot;); opacity: 0.8;" d="M183.59504327381006,-344.08263554746236A390,390,0,0,1,199.57196015651755,-335.0686985071649Q0,0,340.034678787681,190.98800282153485A390,390,0,0,1,330.67757590875846,206.76639183171739Q0,0,183.59504327381006,-344.08263554746236Z"></path><path class="chord" style="fill: url(&quot;#linkGrad-chart-f8dc7a6d-20-27&quot;); opacity: 0.8;" d="M-91.90151309430209,379.0172976144728A390,390,0,0,1,-108.69563398403729,374.54673827548976Q0,0,-383.87200840833447,68.86422264537386A390,390,0,0,1,-386.55880435732604,51.69420445112342Q0,0,-91.90151309430209,379.0172976144728Z"></path><path class="chord" style="fill: url(&quot;#linkGrad-chart-f8dc7a6d-21-28&quot;); opacity: 0.8;" d="M-299.61313917269194,249.6637074848588A390,390,0,0,1,-309.3439632186631,237.50013141084875Q0,0,-388.15318231200825,37.90919494081714A390,390,0,0,1,-389.35740230088936,22.378857734553396Q0,0,-299.61313917269194,249.6637074848588Z"></path><path class="chord" style="fill: url(&quot;#linkGrad-chart-f8dc7a6d-3-5&quot;); opacity: 0.8;" d="M277.1511865714373,-274.3851668404186A390,390,0,0,1,286.97345302532034,-264.0951291840201Q0,0,295.708744974466,-254.27610612408355A390,390,0,0,1,304.7853031090104,-243.32266439595935Q0,0,277.1511865714373,-274.3851668404186Z"></path><path class="chord" style="fill: url(&quot;#linkGrad-chart-f8dc7a6d-0-24&quot;); opacity: 0.8;" d="M27.207180331762675,-389.049828863084A390,390,0,0,1,40.99338444724792,-387.83958337379664Q0,0,-340.10847924636,190.8565491271607A390,390,0,0,1,-346.6658618955493,178.66947192012387Q0,0,27.207180331762675,-389.049828863084Z"></path><path class="chord" style="fill: url(&quot;#linkGrad-chart-f8dc7a6d-17-26&quot;); opacity: 0.8;" d="M182.00008677422278,344.92893241097556A390,390,0,0,1,169.99525004462765,351.0008760135287Q0,0,-379.3963996604238,90.32370632734242A390,390,0,0,1,-382.2859299744324,77.18463411575755Q0,0,182.00008677422278,344.92893241097556Z"></path><path class="chord" style="fill: url(&quot;#linkGrad-chart-f8dc7a6d-2-20&quot;); opacity: 0.8;" d="M251.54940215956444,-298.03170682523984A390,390,0,0,1,260.8185125641632,-289.95465766877663Q0,0,128.6555527177537,368.16809850242225A390,390,0,0,1,116.98678774080325,372.04044335809544Q0,0,251.54940215956444,-298.03170682523984Z"></path><path class="chord" style="fill: url(&quot;#linkGrad-chart-f8dc7a6d-12-18&quot;); opacity: 0.8;" d="M318.71706711777006,224.76528007645416A390,390,0,0,1,311.667574983186,234.44257869273693Q0,0,166.47680009267484,352.6832502840241A390,390,0,0,1,155.57252747277295,357.62716437056804Q0,0,318.71706711777006,224.76528007645416Z"></path><path class="chord" style="fill: url(&quot;#linkGrad-chart-f8dc7a6d-19-28&quot;); opacity: 0.8;" d="M151.98853687174474,359.1649825074631A390,390,0,0,1,142.3915387062699,363.0766443946248Q0,0,-345.00031333167675,-181.86474040078488A390,390,0,0,1,-340.0461952502092,-190.96749748545326Q0,0,151.98853687174474,359.1649825074631Z"></path><path class="chord" style="fill: url(&quot;#linkGrad-chart-f8dc7a6d-16-28&quot;); opacity: 0.8;" d="M197.66272276733122,336.1985247263961A390,390,0,0,1,189.1666795864026,341.0512678971525Q0,0,-340.0461952502092,-190.96749748545326A390,390,0,0,1,-335.1485932595548,-199.4377608080815Q0,0,197.66272276733122,336.1985247263961Z"></path><path class="chord" style="fill: url(&quot;#linkGrad-chart-f8dc7a6d-2-8&quot;); opacity: 0.8;" d="M268.3840794369015,-282.96640419810785A390,390,0,0,1,274.3935231898162,-277.14291337048434Q0,0,339.1313396796655,-192.58747219659782A390,390,0,0,1,343.18535963100953,-185.2668587063931Q0,0,268.3840794369015,-282.96640419810785Z"></path><path class="chord" style="fill: url(&quot;#linkGrad-chart-f8dc7a6d-2-28&quot;); opacity: 0.8;" d="M206.36487601094976,-330.9282972926089A390,390,0,0,1,213.0942750709183,-326.635622570472Q0,0,-39.045882246754346,-388.0404863922998A390,390,0,0,1,-31.096253431400793,-388.75830926493404Q0,0,206.36487601094976,-330.9282972926089Z"></path><path class="chord" style="fill: url(&quot;#linkGrad-chart-f8dc7a6d-7-28&quot;); opacity: 0.8;" d="M331.4899224129473,-205.46150816797334A390,390,0,0,1,334.86888172955304,-199.9070585277033Q0,0,-71.02745974955366,-383.4776394544088A390,390,0,0,1,-64.62506053752612,-384.6083742594811Q0,0,331.4899224129473,-205.46150816797334Z"></path><path class="chord" style="fill: url(&quot;#linkGrad-chart-f8dc7a6d-2-14&quot;); opacity: 0.8;" d="M263.9616531462416,-287.09623067588893A390,390,0,0,1,268.3840794369015,-282.96640419810785Q0,0,301.3565886543787,247.55647128401955A390,390,0,0,1,297.4795664073159,252.20211650601854Q0,0,263.9616531462416,-287.09623067588893Z"></path><path class="chord" style="fill: url(&quot;#linkGrad-chart-f8dc7a6d-24-28&quot;); opacity: 0.8;" d="M-346.6658618955493,178.66947192012387A390,390,0,0,1,-349.3675271685725,173.32723663670623Q0,0,-387.52556176518823,43.8627288090387A390,390,0,0,1,-388.15318231200825,37.90919494081714Q0,0,-346.6658618955493,178.66947192012387Z"></path><path class="chord" style="fill: url(&quot;#linkGrad-chart-f8dc7a6d-11-13&quot;); opacity: 0.8;" d="M324.0614099546463,216.9889457511757A390,390,0,0,1,320.94874673728424,221.5669243541702Q0,0,309.3076050209383,237.54748046698208A390,390,0,0,1,305.90461325999695,241.9139673236163Q0,0,324.0614099546463,216.9889457511757Z"></path><path class="chord" style="fill: url(&quot;#linkGrad-chart-f8dc7a6d-4-15&quot;); opacity: 0.8;" d="M289.6000117484464,-261.21223783601664A390,390,0,0,1,293.15124097832717,-257.2204305899257Q0,0,205.5742567351655,331.42001292587065A390,390,0,0,1,201.0147689280086,334.2051206561912Q0,0,289.6000117484464,-261.21223783601664Z"></path><path class="chord" style="fill: url(&quot;#linkGrad-chart-f8dc7a6d-6-8&quot;); opacity: 0.8;" d="M326.9496777289757,-212.6121074466808A390,390,0,0,1,329.41876721668075,-208.76607915425893Q0,0,336.85117569259535,-196.54843025197698A390,390,0,0,1,339.1313396796655,-192.58747219659782Q0,0,326.9496777289757,-212.6121074466808Z"></path><path class="chord" style="fill: url(&quot;#linkGrad-chart-f8dc7a6d-20-23&quot;); opacity: 0.8;" d="M-127.52710585411114,368.5604933690999A390,390,0,0,1,-131.8374031383169,367.0407322542621Q0,0,-323.1966856043948,218.27483229711575A390,390,0,0,1,-325.7323926360134,214.47239539767816Q0,0,-127.52710585411114,368.5604933690999Z"></path><path class="chord" style="fill: url(&quot;#linkGrad-chart-f8dc7a6d-21-27&quot;); opacity: 0.8;" d="M-309.3439632186631,237.50013141084875A390,390,0,0,1,-312.1059172028733,233.85871043635132Q0,0,-383.03864931433515,73.35797933047077A390,390,0,0,1,-383.87200840833447,68.86422264537386Q0,0,-309.3439632186631,237.50013141084875Z"></path><path class="chord" style="fill: url(&quot;#linkGrad-chart-f8dc7a6d-5-10&quot;); opacity: 0.8;" d="M304.7853031090104,-243.32266439595935A390,390,0,0,1,307.4970562221843,-239.88655738638386Q0,0,328.59341271032076,210.06277424471193A390,390,0,0,1,326.21506031204194,213.73753630471845Q0,0,304.7853031090104,-243.32266439595935Z"></path><path class="chord" style="fill: url(&quot;#linkGrad-chart-f8dc7a6d-2-17&quot;); opacity: 0.8;" d="M260.8185125641632,-289.95465766877663A390,390,0,0,1,263.9616531462416,-287.09623067588893Q0,0,185.74676549386479,342.92585074410357A390,390,0,0,1,182.00008677422278,344.92893241097556Q0,0,260.8185125641632,-289.95465766877663Z"></path><path class="chord" style="fill: url(&quot;#linkGrad-chart-f8dc7a6d-0-2&quot;); opacity: 0.8;" d="M176.5385539463451,-347.7558611591376A390,390,0,0,1,180.14509458948862,-345.9013513927695Q0,0,202.9126127822322,-333.05625887211295A390,390,0,0,1,206.36487601094976,-330.9282972926089Q0,0,176.5385539463451,-347.7558611591376Z"></path><path class="chord" style="fill: url(&quot;#linkGrad-chart-f8dc7a6d-8-27&quot;); opacity: 0.8;" d="M343.8291645390458,184.06929568068048A390,390,0,0,1,341.9275253924629,187.57816338525822Q0,0,-386.55880435732604,51.69420445112342A390,390,0,0,1,-387.06756567089633,47.73572672125544Q0,0,343.8291645390458,184.06929568068048Z"></path><path class="chord" style="fill: url(&quot;#linkGrad-chart-f8dc7a6d-21-24&quot;); opacity: 0.8;" d="M-314.4827204250399,230.6525927755121A390,390,0,0,1,-316.8265900407891,227.42232045937308Q0,0,-327.86079436085924,211.20440222937208A390,390,0,0,1,-330.00494437555466,207.83824645066426Q0,0,-314.4827204250399,230.6525927755121Z"></path><path class="chord" style="fill: url(&quot;#linkGrad-chart-f8dc7a6d-21-25&quot;); opacity: 0.8;" d="M-312.1059172028733,233.85871043635132A390,390,0,0,1,-314.4827204250399,230.6525927755121Q0,0,-351.08330241642204,169.82495330303826A390,390,0,0,1,-352.8027882859752,166.22332140118408Q0,0,-312.1059172028733,233.85871043635132Z"></path><path class="chord" style="fill: url(&quot;#linkGrad-chart-f8dc7a6d-6-20&quot;); opacity: 0.8;" d="M324.8637254925372,-215.78591209601575A390,390,0,0,1,326.9496777289757,-212.6121074466808Q0,0,132.2347296278153,366.8977736103867A390,390,0,0,1,128.6555527177537,368.16809850242225Q0,0,324.8637254925372,-215.78591209601575Z"></path><path class="chord" style="fill: url(&quot;#linkGrad-chart-f8dc7a6d-19-20&quot;); opacity: 0.8;" d="M142.3915387062699,363.0766443946248A390,390,0,0,1,139.14981375627312,364.33134552436536Q0,0,135.49960358990793,365.7046040549364A390,390,0,0,1,132.2347296278153,366.8977736103867Q0,0,142.3915387062699,363.0766443946248Z"></path><path class="chord" style="fill: url(&quot;#linkGrad-chart-f8dc7a6d-13-22&quot;); opacity: 0.8;" d="M305.90461325999695,241.9139673236163A390,390,0,0,1,303.81704440414535,244.53057790290677Q0,0,-319.0849341443608,224.2427363418689A390,390,0,0,1,-320.9978139607651,221.49583163664738Q0,0,305.90461325999695,241.9139673236163Z"></path></g></svg>
